<svg xmlns="http://www.w3.org/2000/svg" width="900" height="650" viewBox="0 0 900 650">
<defs>
 <linearGradient id="sky" x1="0" y1="0" x2="0" y2="1"><stop stop-color="#9fd4ef"/><stop offset="1" stop-color="#f8dfad"/></linearGradient>
 <linearGradient id="night" x1="0" y1="0" x2="0" y2="1"><stop stop-color="#122a42"/><stop offset="1" stop-color="#6f6b55"/></linearGradient>
 <linearGradient id="gold" x1="0" y1="0" x2="1" y2="1"><stop stop-color="#e9c86c"/><stop offset="1" stop-color="#a87924"/></linearGradient>
 <filter id="shadow"><feDropShadow dx="0" dy="8" stdDeviation="8" flood-opacity=".18"/></filter>
</defs>
<rect width="900" height="650" rx="30" fill="#f8f1df"/>
<text x="450" y="85" text-anchor="middle" font-family="Tahoma,Arial" font-size="25" font-weight="700" fill="#6b5425">التمكين</text><circle cx="710" cy="110" r="55" fill="#fff3c2"/><path d="M0 430 Q180 350 360 425 T900 410 V650 H0Z" fill="#8fbd67"/>
        <path d="M0 500 Q180 430 360 500 T900 480 V650 H0Z" fill="#5d994f"/>
        <path d="M420 420 C410 300 430 250 450 205 C470 250 480 320 475 420Z" fill="#704b2e"/>
        <circle cx="450" cy="180" r="110" fill="#3f7d3b"/><circle cx="370" cy="220" r="80" fill="#4f8f42"/><circle cx="530" cy="220" r="85" fill="#4a8a40"/>
        <path d="M0 550 Q240 500 430 550 T900 535" fill="none" stroke="#b9e1d8" stroke-width="34" opacity=".85"/>
</svg>